<?xml version="1.0" encoding="UTF-8" standalone="no"?>
<!DOCTYPE svg PUBLIC "-//W3C//DTD SVG 1.1//EN"
 "http://www.w3.org/Graphics/SVG/1.1/DTD/svg11.dtd">
<!-- Generated by graphviz version 2.40.1 (20161225.0304)
 -->
<!-- Title: %3 Pages: 1 -->
<svg width="590pt" height="404pt"
 viewBox="0.00 0.00 590.07 404.00" xmlns="http://www.w3.org/2000/svg" xmlns:xlink="http://www.w3.org/1999/xlink">
<g id="graph0" class="graph" transform="scale(1 1) rotate(0) translate(4 400)">
<title>%3</title>
<polygon fill="#ffffff" stroke="transparent" points="-4,4 -4,-400 586.075,-400 586.075,4 -4,4"/>
<!-- [root] aws_eip.lb -->
<g id="node1" class="node">
<title>[root] aws_eip.lb</title>
<polygon fill="none" stroke="#000000" points="364.2843,-180 289.2843,-180 289.2843,-144 364.2843,-144 364.2843,-180"/>
<text text-anchor="middle" x="326.7843" y="-158.3" font-family="Times,serif" font-size="14.00" fill="#000000">aws_eip.lb</text>
</g>
<!-- [root] aws_instance.myec2 -->
<g id="node2" class="node">
<title>[root] aws_instance.myec2</title>
<polygon fill="none" stroke="#000000" points="391.2843,-108 262.2843,-108 262.2843,-72 391.2843,-72 391.2843,-108"/>
<text text-anchor="middle" x="326.7843" y="-86.3" font-family="Times,serif" font-size="14.00" fill="#000000">aws_instance.myec2</text>
</g>
<!-- [root] aws_eip.lb&#45;&gt;[root] aws_instance.myec2 -->
<g id="edge1" class="edge">
<title>[root] aws_eip.lb&#45;&gt;[root] aws_instance.myec2</title>
<path fill="none" stroke="#000000" d="M326.7843,-143.8314C326.7843,-136.131 326.7843,-126.9743 326.7843,-118.4166"/>
<polygon fill="#000000" stroke="#000000" points="330.2844,-118.4132 326.7843,-108.4133 323.2844,-118.4133 330.2844,-118.4132"/>
</g>
<!-- [root] provider.aws -->
<g id="node4" class="node">
<title>[root] provider.aws</title>
<polygon fill="none" stroke="#000000" points="326.7843,-36 246.8509,-18 326.7843,0 406.7177,-18 326.7843,-36"/>
<text text-anchor="middle" x="326.7843" y="-14.3" font-family="Times,serif" font-size="14.00" fill="#000000">provider.aws</text>
</g>
<!-- [root] aws_instance.myec2&#45;&gt;[root] provider.aws -->
<g id="edge2" class="edge">
<title>[root] aws_instance.myec2&#45;&gt;[root] provider.aws</title>
<path fill="none" stroke="#000000" d="M326.7843,-71.8314C326.7843,-64.131 326.7843,-54.9743 326.7843,-46.4166"/>
<polygon fill="#000000" stroke="#000000" points="330.2844,-46.4132 326.7843,-36.4133 323.2844,-46.4133 330.2844,-46.4132"/>
</g>
<!-- [root] aws_security_group.allow_tls -->
<g id="node3" class="node">
<title>[root] aws_security_group.allow_tls</title>
<polygon fill="none" stroke="#000000" points="416.2843,-252 237.2843,-252 237.2843,-216 416.2843,-216 416.2843,-252"/>
<text text-anchor="middle" x="326.7843" y="-230.3" font-family="Times,serif" font-size="14.00" fill="#000000">aws_security_group.allow_tls</text>
</g>
<!-- [root] aws_security_group.allow_tls&#45;&gt;[root] aws_eip.lb -->
<g id="edge3" class="edge">
<title>[root] aws_security_group.allow_tls&#45;&gt;[root] aws_eip.lb</title>
<path fill="none" stroke="#000000" d="M326.7843,-215.8314C326.7843,-208.131 326.7843,-198.9743 326.7843,-190.4166"/>
<polygon fill="#000000" stroke="#000000" points="330.2844,-190.4132 326.7843,-180.4133 323.2844,-190.4133 330.2844,-190.4132"/>
</g>
<!-- [root] meta.count&#45;boundary (EachMode fixup) -->
<g id="node5" class="node">
<title>[root] meta.count&#45;boundary (EachMode fixup)</title>
<ellipse fill="none" stroke="#000000" cx="176.7843" cy="-306" rx="176.5689" ry="18"/>
<text text-anchor="middle" x="176.7843" y="-302.3" font-family="Times,serif" font-size="14.00" fill="#000000">[root] meta.count&#45;boundary (EachMode fixup)</text>
</g>
<!-- [root] meta.count&#45;boundary (EachMode fixup)&#45;&gt;[root] aws_security_group.allow_tls -->
<g id="edge4" class="edge">
<title>[root] meta.count&#45;boundary (EachMode fixup)&#45;&gt;[root] aws_security_group.allow_tls</title>
<path fill="none" stroke="#000000" d="M213.4784,-288.3868C233.4999,-278.7765 258.4997,-266.7766 279.9191,-256.4953"/>
<polygon fill="#000000" stroke="#000000" points="281.6645,-259.5399 289.1651,-252.0572 278.6353,-253.2292 281.6645,-259.5399"/>
</g>
<!-- [root] provider.aws (close) -->
<g id="node6" class="node">
<title>[root] provider.aws (close)</title>
<ellipse fill="none" stroke="#000000" cx="476.7843" cy="-306" rx="105.0817" ry="18"/>
<text text-anchor="middle" x="476.7843" y="-302.3" font-family="Times,serif" font-size="14.00" fill="#000000">[root] provider.aws (close)</text>
</g>
<!-- [root] provider.aws (close)&#45;&gt;[root] aws_security_group.allow_tls -->
<g id="edge5" class="edge">
<title>[root] provider.aws (close)&#45;&gt;[root] aws_security_group.allow_tls</title>
<path fill="none" stroke="#000000" d="M441.2364,-288.937C420.9963,-279.2218 395.3974,-266.9343 373.5442,-256.4448"/>
<polygon fill="#000000" stroke="#000000" points="374.9643,-253.2441 364.4345,-252.0721 371.9351,-259.5548 374.9643,-253.2441"/>
</g>
<!-- [root] root -->
<g id="node7" class="node">
<title>[root] root</title>
<ellipse fill="none" stroke="#000000" cx="326.7843" cy="-378" rx="47.3916" ry="18"/>
<text text-anchor="middle" x="326.7843" y="-374.3" font-family="Times,serif" font-size="14.00" fill="#000000">[root] root</text>
</g>
<!-- [root] root&#45;&gt;[root] meta.count&#45;boundary (EachMode fixup) -->
<g id="edge6" class="edge">
<title>[root] root&#45;&gt;[root] meta.count&#45;boundary (EachMode fixup)</title>
<path fill="none" stroke="#000000" d="M297.1491,-363.7751C275.8752,-353.5636 246.8009,-339.608 222.5569,-327.9708"/>
<polygon fill="#000000" stroke="#000000" points="224.0578,-324.809 213.5279,-323.6369 221.0286,-331.1196 224.0578,-324.809"/>
</g>
<!-- [root] root&#45;&gt;[root] provider.aws (close) -->
<g id="edge7" class="edge">
<title>[root] root&#45;&gt;[root] provider.aws (close)</title>
<path fill="none" stroke="#000000" d="M356.4195,-363.7751C378.072,-353.3819 407.8049,-339.1101 432.3013,-327.3519"/>
<polygon fill="#000000" stroke="#000000" points="433.9049,-330.4645 441.4056,-322.9818 430.8758,-324.1538 433.9049,-330.4645"/>
</g>
</g>
</svg>